<svg width="1303" height="480" viewBox="0 0 1303 480" fill="none" xmlns="http://www.w3.org/2000/svg">
<path fill-rule="evenodd" clip-rule="evenodd" d="M353.249 25.534C360.132 25.534 365.714 31.116 365.714 37.999C365.714 44.882 360.132 50.464 353.249 50.464C346.366 50.464 340.784 44.882 340.784 37.999C340.784 31.116 346.366 25.534 353.249 25.534ZM256.735 124.369C249.852 124.369 244.27 118.787 244.27 111.904C244.27 105.021 249.852 99.439 256.735 99.439C263.618 99.439 269.2 105.021 269.2 111.904C269.2 118.787 263.618 124.369 256.735 124.369ZM160.221 25.534C153.338 25.534 147.756 31.116 147.756 37.999C147.756 44.882 153.338 50.464 160.221 50.464C167.104 50.464 172.686 44.882 172.686 37.999C172.686 31.116 167.104 25.534 160.221 25.534ZM172.686 137.437H198.22V37.999V35.907H198.162C197.075 15.897 180.502 0.00100708 160.222 0.00100708C139.24 0.00100708 122.224 17.017 122.224 38C122.224 58.982 139.24 75.999 160.222 75.999C164.588 75.999 168.782 75.26 172.687 73.904V111.905L115.454 111.904C100.01 111.896 84.673 114.996 70.45 121.021C56.772 126.808 44.318 135.209 33.808 145.714C23.306 156.219 14.907 168.675 9.123 182.343C3.096 196.563 -0.00198921 211.888 1.07912e-05 227.318C-0.0119892 254.953 9.98501 281.554 25.75 300.008C28.269 303.114 30.95 306.093 33.787 308.929C39.204 314.347 45.141 319.207 51.499 323.438C51.21 325.914 51.065 328.408 51.066 330.906C51.065 339.506 52.788 348.058 56.143 355.975C59.374 363.61 64.06 370.555 69.919 376.416C75.781 382.276 82.726 386.963 90.356 390.19C98.278 393.547 106.831 395.271 115.433 395.267L192.901 395.266V444.095H192.725C191.729 449.983 186.606 454.468 180.436 454.468C174.266 454.468 169.142 449.983 168.147 444.095H142.496C143.583 464.105 160.156 480.001 180.436 480.001C200.716 480.001 217.29 464.105 218.376 444.095H218.434C218.434 402.486 218.434 360.877 218.434 319.268C183.804 319.268 149.173 319.273 114.542 319.276C111.63 319.579 109.292 320.564 107.166 322.681C106.11 323.737 105.257 325.003 104.673 326.389C104.07 327.828 103.778 329.335 103.771 330.918C103.778 332.479 104.072 333.981 104.677 335.424C105.261 336.813 106.121 338.085 107.187 339.15C108.25 340.214 109.523 341.076 110.917 341.663C112.355 342.264 113.853 342.559 115.423 342.564H193.333H192.902V370.165L115.429 370.163C110.193 370.166 104.972 369.116 100.148 367.073C95.488 365.101 91.25 362.241 87.672 358.664C84.095 355.086 81.236 350.85 79.264 346.189C77.219 341.366 76.172 336.143 76.173 330.903C76.17 325.672 77.217 320.462 79.251 315.643C79.973 313.932 80.816 312.277 81.77 310.692C80.663 310.245 79.565 309.775 78.477 309.284C71.899 306.316 65.705 302.564 60.035 298.127C57.164 295.881 54.428 293.459 51.844 290.875C43.656 282.687 37.102 272.95 32.602 262.292C27.934 251.243 25.529 239.323 25.534 227.325C25.533 215.311 27.943 203.37 32.634 192.303C37.14 181.654 43.685 171.95 51.865 163.768C60.051 155.585 69.751 149.039 80.408 144.533C91.472 139.844 103.419 137.432 115.444 137.438L172.686 137.437ZM320.569 342.563H320.137H398.047C399.617 342.557 401.115 342.262 402.553 341.662C403.948 341.075 405.22 340.213 406.282 339.149C407.348 338.085 408.209 336.813 408.793 335.423C409.397 333.98 409.691 332.478 409.698 330.917C409.691 329.334 409.399 327.827 408.796 326.388C408.213 325.002 407.36 323.736 406.303 322.68C404.178 320.563 401.839 319.578 398.927 319.275C364.296 319.273 329.665 319.267 295.035 319.267C295.035 360.876 295.035 402.485 295.035 444.094H295.093C296.18 464.104 312.753 480 333.033 480C353.313 480 369.887 464.104 370.973 444.094H345.322C344.326 449.982 339.203 454.467 333.033 454.467C326.863 454.467 321.739 449.982 320.744 444.094H320.568V395.265L398.035 395.266C406.637 395.27 415.19 393.546 423.113 390.189C430.742 386.962 437.687 382.276 443.549 376.415C449.408 370.554 454.094 363.608 457.325 355.974C460.68 348.057 462.402 339.504 462.402 330.905C462.402 328.407 462.257 325.913 461.969 323.437C468.326 319.206 474.264 314.346 479.681 308.928C482.518 306.092 485.2 303.113 487.718 300.007C503.483 281.553 513.48 254.951 513.468 227.317C513.47 211.887 510.372 196.562 504.345 182.342C498.561 168.674 490.161 156.219 479.66 145.713C469.15 135.208 456.696 126.807 443.017 121.02C428.794 114.996 413.458 111.896 398.013 111.903L340.781 111.904V73.903C344.686 75.259 348.88 75.998 353.246 75.998C374.228 75.998 391.244 58.982 391.244 37.999C391.244 17.017 374.228 0 353.246 0C332.966 0 316.392 15.897 315.306 35.906H315.248V37.998V137.436H340.781L398.023 137.435C410.048 137.429 421.995 139.841 433.06 144.53C443.717 149.036 453.417 155.582 461.603 163.765C469.783 171.947 476.328 181.651 480.833 192.3C485.524 203.368 487.935 215.309 487.934 227.322C487.939 239.321 485.534 251.24 480.866 262.289C476.366 272.948 469.812 282.684 461.624 290.872C459.041 293.456 456.305 295.877 453.434 298.124C447.764 302.561 441.57 306.313 434.992 309.281C433.903 309.773 432.805 310.242 431.699 310.689C432.653 312.275 433.495 313.929 434.218 315.64C436.253 320.459 437.3 325.669 437.296 330.9C437.297 336.14 436.25 341.363 434.205 346.186C432.234 350.847 429.374 355.083 425.797 358.661C422.219 362.238 417.982 365.099 413.321 367.07C408.497 369.113 403.276 370.163 398.04 370.16L320.567 370.162V342.563H320.569ZM269.502 291.664C312.964 291.667 356.45 291.663 399.894 291.663H400.193L401.091 291.619C425.56 290.484 447.751 275.069 457.347 252.36C460.689 244.45 462.409 235.912 462.406 227.331C462.406 218.731 460.684 210.178 457.329 202.261C454.098 194.627 449.412 187.681 443.553 181.82C437.691 175.961 430.745 171.273 423.117 168.047C415.194 164.69 406.641 162.966 398.039 162.97L295.039 162.971V238.969C329.669 238.969 364.3 238.964 398.931 238.961L399.247 238.928C401.992 238.652 404.324 237.531 406.307 235.556C407.364 234.499 408.217 233.234 408.8 231.848C409.404 230.409 409.696 228.902 409.702 227.319C409.695 225.757 409.401 224.256 408.797 222.813C408.213 221.424 407.353 220.152 406.286 219.087C405.223 218.022 403.951 217.161 402.557 216.574C401.119 215.973 399.621 215.678 398.051 215.673H320.141L320.142 188.073H398.045C403.281 188.07 408.502 189.12 413.326 191.163C417.986 193.134 422.223 195.995 425.802 199.572C429.379 203.149 432.24 207.386 434.21 212.047C436.255 216.87 437.302 222.094 437.301 227.334C437.305 232.565 436.258 237.775 434.223 242.594C432.255 247.256 429.398 251.494 425.821 255.071C418.938 261.959 409.63 266.092 399.897 266.545L399.573 266.561L269.506 266.572V147.702C284.21 142.456 294.737 128.409 294.737 111.905C294.737 90.923 277.721 73.906 256.739 73.906C235.757 73.906 218.74 90.922 218.74 111.905C218.74 128.408 229.268 142.456 243.972 147.702V266.572L113.905 266.561L113.58 266.545C103.848 266.092 94.539 261.959 87.657 255.071C84.08 251.494 81.222 247.257 79.255 242.594C77.22 237.775 76.174 232.565 76.177 227.334C76.176 222.094 77.222 216.87 79.268 212.047C81.239 207.386 84.099 203.149 87.676 199.572C91.255 195.995 95.492 193.134 100.152 191.163C104.976 189.12 110.197 188.07 115.433 188.073H193.336L193.337 215.673H115.427C113.856 215.678 112.359 215.973 110.921 216.574C109.527 217.161 108.254 218.022 107.191 219.087C106.125 220.152 105.265 221.423 104.681 222.813C104.076 224.256 103.782 225.758 103.775 227.319C103.782 228.902 104.074 230.409 104.677 231.848C105.26 233.234 106.114 234.499 107.17 235.556C109.153 237.531 111.485 238.652 114.23 238.928L114.546 238.961C149.177 238.964 183.808 238.969 218.438 238.969V162.97L115.437 162.969C106.835 162.965 98.282 164.689 90.36 168.046C82.73 171.273 75.785 175.96 69.923 181.819C64.063 187.681 59.378 194.626 56.147 202.26C52.791 210.177 51.069 218.73 51.07 227.33C51.066 235.911 52.786 244.449 56.128 252.359C65.724 275.068 87.915 290.484 112.384 291.618L113.281 291.662H113.58C157.023 291.662 200.51 291.666 243.972 291.663V395.263H269.505V291.664H269.502Z" fill="#7151A9"/>
<path d="M625.468 119.6C625.468 105.467 629.335 94.6667 637.068 87.2C644.801 79.7333 657.535 76 675.268 76H722.068V98H675.268C667.935 98 662.468 99.7333 658.868 103.2C655.401 106.667 653.668 112.133 653.668 119.6V139H713.268V161H653.668V216H625.468V119.6ZM773.94 218.4C767.14 214.933 762.406 211 759.74 206.6C757.073 202.067 755.74 195.8 755.74 187.8V97.4C755.74 93.8 755.006 90.8667 753.54 88.6C752.206 86.3333 749.74 83.8667 746.14 81.2L763.54 66C770.34 69.4667 775.073 73.4667 777.74 78C780.407 82.4 781.74 88.6 781.74 96.6V187C781.74 190.6 782.407 193.533 783.74 195.8C785.207 198.067 787.74 200.533 791.34 203.2L773.94 218.4ZM908.013 186.6C908.013 190.2 908.68 193.133 910.013 195.4C911.48 197.667 914.013 200.133 917.613 202.8L900.213 218C895.813 215.733 892.347 213.333 889.813 210.8C887.28 208.267 885.347 205.267 884.013 201.8C877.88 212.867 868.347 218.4 855.413 218.4C844.88 218.4 836.747 215.6 831.013 210C825.28 204.4 822.413 196.4 822.413 186V122H848.413V183.6C848.413 188.133 849.68 191.733 852.213 194.4C854.88 197.067 858.48 198.4 863.013 198.4C871.813 198.4 878.147 192.667 882.013 181.2V122H908.013V186.6ZM974.17 142V180.8C974.17 186.4 975.036 190.333 976.77 192.6C978.503 194.867 981.436 196 985.57 196H1001.37V216H985.57C976.236 216 968.836 214.867 963.37 212.6C958.036 210.333 954.17 206.667 951.77 201.6C949.37 196.533 948.17 189.6 948.17 180.8V107.4C948.17 103.8 947.436 100.867 945.97 98.6C944.636 96.3333 942.17 93.8667 938.57 91.2L955.97 76C962.77 79.4667 967.503 83.4667 970.17 88C972.836 92.4 974.17 98.6 974.17 106.6V122H1001.37V142H974.17ZM1061.02 142V180.8C1061.02 186.4 1061.89 190.333 1063.62 192.6C1065.35 194.867 1068.29 196 1072.42 196H1088.22V216H1072.42C1063.09 216 1055.69 214.867 1050.22 212.6C1044.89 210.333 1041.02 206.667 1038.62 201.6C1036.22 196.533 1035.02 189.6 1035.02 180.8V107.4C1035.02 103.8 1034.29 100.867 1032.82 98.6C1031.49 96.3333 1029.02 93.8667 1025.42 91.2L1042.82 76C1049.62 79.4667 1054.35 83.4667 1057.02 88C1059.69 92.4 1061.02 98.6 1061.02 106.6V122H1088.22V142H1061.02ZM1159.7 198.8C1164.63 198.8 1168.63 198.2 1171.7 197C1174.76 195.667 1178.1 193.4 1181.7 190.2L1197.1 204.2C1189.36 213.667 1176.9 218.4 1159.7 218.4C1144.36 218.4 1133.3 215.533 1126.5 209.8C1119.7 203.933 1116.3 194.467 1116.3 181.4V152.8C1116.3 142.533 1119.96 134.467 1127.3 128.6C1134.76 122.6 1144.9 119.6 1157.7 119.6C1170.9 119.6 1181.23 122.8 1188.7 129.2C1196.16 135.467 1199.9 144.667 1199.9 156.8C1199.9 162.667 1199.36 167.2 1198.3 170.4C1197.36 173.6 1195.43 176 1192.5 177.6C1189.56 179.067 1185.3 179.8 1179.7 179.8H1142.1V181.6C1142.1 193.067 1147.96 198.8 1159.7 198.8ZM1157.7 139.2C1152.76 139.2 1148.9 140.667 1146.1 143.6C1143.43 146.4 1142.1 150.133 1142.1 154.8V162H1164.9C1168.36 162 1170.76 161.467 1172.1 160.4C1173.43 159.333 1174.1 157.467 1174.1 154.8C1174.1 149.733 1172.7 145.867 1169.9 143.2C1167.1 140.533 1163.03 139.2 1157.7 139.2ZM1284.75 119.6C1291.69 119.6 1297.55 121.467 1302.35 125.2L1295.95 146.8C1293.15 144.933 1290.49 143.6 1287.95 142.8C1285.42 142 1282.29 141.6 1278.55 141.6C1269.75 141.6 1263.42 147.467 1259.55 159.2V216H1233.55V151C1233.55 147.4 1232.82 144.467 1231.35 142.2C1230.02 139.933 1227.55 137.467 1223.95 134.8L1241.35 119.6C1245.89 122 1249.49 124.533 1252.15 127.2C1254.82 129.867 1256.75 133.067 1257.95 136.8C1260.62 131.6 1264.15 127.467 1268.55 124.4C1272.95 121.2 1278.35 119.6 1284.75 119.6Z" fill="#7151A9"/>
<path d="M630.468 281H645.068C652.401 281 658.268 282 662.668 284C667.068 286 670.868 289.2 674.068 293.6C677.268 297.867 681.001 304.333 685.268 313L696.868 336.4L708.468 313C712.735 304.333 716.468 297.867 719.668 293.6C722.868 289.2 726.668 286 731.068 284C735.468 282 741.335 281 748.668 281H763.268V421H737.668V310.4C736.068 310.4 734.735 311.133 733.668 312.6C732.601 314.067 731.001 316.667 728.868 320.4L696.868 379.8L664.868 320.4C662.735 316.667 661.135 314.067 660.068 312.6C659.001 311.133 657.668 310.333 656.068 310.2V421H630.468V281ZM821.665 314.4C817.531 314.4 813.998 312.933 811.065 310C808.131 307.067 806.665 303.533 806.665 299.4C806.665 295.4 808.131 291.933 811.065 289C813.998 285.933 817.531 284.4 821.665 284.4C825.665 284.4 829.132 285.933 832.065 289C835.132 291.933 836.665 295.4 836.665 299.4C836.665 303.533 835.132 307.067 832.065 310C829.132 312.933 825.665 314.4 821.665 314.4ZM826.865 423.4C820.065 419.933 815.331 416 812.665 411.6C809.998 407.067 808.665 400.8 808.665 392.8V327H834.665V392C834.665 395.6 835.331 398.533 836.665 400.8C838.131 403.067 840.665 405.533 844.265 408.2L826.865 423.4ZM930.543 324.6C940.81 324.6 948.676 327.4 954.143 333C959.743 338.6 962.543 346.6 962.543 357V421H936.543V359.4C936.543 354.867 935.276 351.267 932.743 348.6C930.343 345.933 927.076 344.6 922.943 344.6C914.143 344.6 907.81 349.8 903.943 360.2V421H877.943V356C877.943 352.4 877.21 349.467 875.743 347.2C874.41 344.933 871.943 342.467 868.343 339.8L885.743 324.6C890.01 326.733 893.343 329 895.743 331.4C898.276 333.8 900.21 336.6 901.543 339.8C904.343 335.267 908.076 331.6 912.743 328.8C917.543 326 923.476 324.6 930.543 324.6ZM1090.52 392C1090.52 395.6 1091.19 398.533 1092.52 400.8C1093.99 403.067 1096.52 405.533 1100.12 408.2L1082.72 423.4C1074.99 419.533 1069.72 414.333 1066.92 407.8C1063.59 413 1059.39 416.933 1054.32 419.6C1049.26 422.133 1042.99 423.4 1035.52 423.4C1022.99 423.4 1012.99 419.267 1005.52 411C998.189 402.6 994.523 391.333 994.523 377.2V370.8C994.523 362.4 996.056 354.733 999.123 347.8C1002.19 340.733 1006.79 335.133 1012.92 331C1019.19 326.733 1026.72 324.6 1035.52 324.6C1048.06 324.6 1057.72 328.467 1064.52 336.2V302.4C1064.52 298.8 1063.79 295.867 1062.32 293.6C1060.99 291.333 1058.52 288.867 1054.92 286.2L1072.32 271C1079.12 274.467 1083.86 278.467 1086.52 283C1089.19 287.4 1090.52 293.6 1090.52 301.6V392ZM1064.52 361C1061.46 350.067 1054.32 344.6 1043.12 344.6C1035.92 344.6 1030.32 347.2 1026.32 352.4C1022.46 357.467 1020.52 363.6 1020.52 370.8V377.2C1020.52 384.533 1022.46 390.733 1026.32 395.8C1030.19 400.867 1035.79 403.4 1043.12 403.4C1054.32 403.4 1061.46 397.933 1064.52 387V361Z" fill="#7151A9"/>
</svg>
